<?xml version="1.0" encoding="UTF-8" standalone="no"?>
<!-- Created with Inkscape (http://www.inkscape.org/) -->

<svg
   xmlns:dc="http://purl.org/dc/elements/1.1/"
   xmlns:cc="http://creativecommons.org/ns#"
   xmlns:rdf="http://www.w3.org/1999/02/22-rdf-syntax-ns#"
   xmlns:svg="http://www.w3.org/2000/svg"
   xmlns="http://www.w3.org/2000/svg"
   xmlns:sodipodi="http://sodipodi.sourceforge.net/DTD/sodipodi-0.dtd"
   xmlns:inkscape="http://www.inkscape.org/namespaces/inkscape"
   width="200"
   height="200"
   viewBox="0 0 52.916665 52.916668"
   version="1.1"
   id="svg8"
   inkscape:version="0.92.3 (2405546, 2018-03-11)"
   sodipodi:docname="1b.svg">
  <defs
     id="defs2" />
  <sodipodi:namedview
     id="base"
     pagecolor="#ffffff"
     bordercolor="#666666"
     borderopacity="1.0"
     inkscape:pageopacity="0.0"
     inkscape:pageshadow="2"
     inkscape:zoom="2.8"
     inkscape:cx="98.064743"
     inkscape:cy="98.418643"
     inkscape:document-units="px"
     inkscape:current-layer="g880"
     showgrid="false"
     units="px"
     inkscape:window-width="1200"
     inkscape:window-height="1271"
     inkscape:window-x="4941"
     inkscape:window-y="572"
     inkscape:window-maximized="0"
     inkscape:snap-smooth-nodes="true"
     inkscape:snap-global="true" />
  <metadata
     id="metadata5">
    <rdf:RDF>
      <cc:Work
         rdf:about="">
        <dc:format>image/svg+xml</dc:format>
        <dc:type
           rdf:resource="http://purl.org/dc/dcmitype/StillImage" />
        <dc:title />
      </cc:Work>
    </rdf:RDF>
  </metadata>
  <g
     inkscape:label="Layer 1"
     inkscape:groupmode="layer"
     id="layer1"
     transform="translate(0,-244.08332)">
    <g
       id="g833"
       transform="matrix(1.344712,0,0,1,-9.2724954,0)">
      <g
         transform="matrix(0.95853226,0,0,0.76308918,8.2909954,77.872308)"
         id="g880">
        <path
           style="opacity:1;fill:#e6e6e6;fill-opacity:1;stroke:#999999;stroke-width:0.80034656;stroke-linejoin:miter;stroke-miterlimit:4;stroke-dasharray:none;stroke-dashoffset:0;stroke-opacity:1"
           d="m 32.453463,259.21768 c 0,0 -6e-6,6.64066 0,9.06738 -6e-6,2.42672 -5.838291,4.39397 -13.040179,4.39397 -7.201888,0 -13.0401714,-1.96725 -13.0401774,-4.39397 6e-6,-2.42672 -1e-6,-9.06738 -1e-6,-9.06738"
           id="path876"
           inkscape:connector-curvature="0"
           sodipodi:nodetypes="ccscc" />
        <path
           style="opacity:1;fill:#e6e6e6;fill-opacity:1;stroke:#999999;stroke-width:0.80034656;stroke-linejoin:miter;stroke-miterlimit:4;stroke-dasharray:none;stroke-dashoffset:0;stroke-opacity:1"
           d="m 32.453463,259.21768 a 13.040178,4.3939734 0 0 1 -13.040179,4.39398 13.040178,4.3939734 0 0 1 -13.0401774,-4.39398 13.040178,4.3939734 0 0 1 13.0401774,-4.39397 13.040178,4.3939734 0 0 1 13.040179,4.39397 z"
           id="path878"
           inkscape:connector-curvature="0" />
      </g>
      <g
         id="g874"
         transform="matrix(0.95853226,0,0,0.76308918,8.2909954,69.262776)">
        <path
           sodipodi:nodetypes="ccscc"
           inkscape:connector-curvature="0"
           id="path870"
           d="m 32.453463,259.21768 c 0,0 -6e-6,6.64066 0,9.06738 -6e-6,2.42672 -5.838291,4.39397 -13.040179,4.39397 -7.201888,0 -13.0401714,-1.96725 -13.0401774,-4.39397 6e-6,-2.42672 -1e-6,-9.06738 -1e-6,-9.06738"
           style="opacity:1;fill:#e6e6e6;fill-opacity:1;stroke:#999999;stroke-width:0.80034656;stroke-linejoin:miter;stroke-miterlimit:4;stroke-dasharray:none;stroke-dashoffset:0;stroke-opacity:1" />
        <path
           inkscape:connector-curvature="0"
           id="path872"
           d="m 32.453463,259.21768 a 13.040178,4.3939734 0 0 1 -13.040179,4.39398 13.040178,4.3939734 0 0 1 -13.0401774,-4.39398 13.040178,4.3939734 0 0 1 13.0401774,-4.39397 13.040178,4.3939734 0 0 1 13.040179,4.39397 z"
           style="opacity:1;fill:#e6e6e6;fill-opacity:1;stroke:#999999;stroke-width:0.80034656;stroke-linejoin:miter;stroke-miterlimit:4;stroke-dasharray:none;stroke-dashoffset:0;stroke-opacity:1" />
      </g>
      <g
         transform="matrix(0.95853226,0,0,0.76308918,8.2909954,60.653244)"
         id="g841">
        <path
           style="opacity:1;fill:#e6e6e6;fill-opacity:1;stroke:#999999;stroke-width:0.80034656;stroke-linejoin:miter;stroke-miterlimit:4;stroke-dasharray:none;stroke-dashoffset:0;stroke-opacity:1"
           d="m 32.453463,259.21768 c 0,0 -6e-6,6.64066 0,9.06738 -6e-6,2.42672 -5.838291,4.39397 -13.040179,4.39397 -7.201888,0 -13.0401714,-1.96725 -13.0401774,-4.39397 6e-6,-2.42672 -1e-6,-9.06738 -1e-6,-9.06738"
           id="ellipse829"
           inkscape:connector-curvature="0"
           sodipodi:nodetypes="ccscc" />
        <path
           style="opacity:1;fill:#e6e6e6;fill-opacity:1;stroke:#999999;stroke-width:0.80034656;stroke-linejoin:miter;stroke-miterlimit:4;stroke-dasharray:none;stroke-dashoffset:0;stroke-opacity:1"
           d="m 32.453463,259.21768 a 13.040178,4.3939734 0 0 1 -13.040179,4.39398 13.040178,4.3939734 0 0 1 -13.0401774,-4.39398 13.040178,4.3939734 0 0 1 13.0401774,-4.39397 13.040178,4.3939734 0 0 1 13.040179,4.39397 z"
           id="path827"
           inkscape:connector-curvature="0" />
      </g>
    </g>
    <circle
       style="opacity:1;fill:#ffb380;fill-opacity:1;stroke:none;stroke-width:0.79374999;stroke-linejoin:miter;stroke-miterlimit:4;stroke-dasharray:none;stroke-dashoffset:0;stroke-opacity:1"
       id="path882"
       cx="15.497022"
       cy="264.21057"
       r="1.2284226" />
    <circle
       r="1.2284226"
       cy="272.76227"
       cx="15.497022"
       id="circle884"
       style="opacity:1;fill:#ffffff;fill-opacity:1;stroke:none;stroke-width:0.79374999;stroke-linejoin:miter;stroke-miterlimit:4;stroke-dasharray:none;stroke-dashoffset:0;stroke-opacity:1" />
    <circle
       style="opacity:1;fill:#aade87;fill-opacity:1;stroke:none;stroke-width:0.79374999;stroke-linejoin:miter;stroke-miterlimit:4;stroke-dasharray:none;stroke-dashoffset:0;stroke-opacity:1"
       id="circle886"
       cx="15.497022"
       cy="281.31396"
       r="1.2284226" />
  </g>
</svg>
