<?xml version="1.0" encoding="UTF-8" standalone="no"?>
<!-- Created with Inkscape (http://www.inkscape.org/) -->

<svg
   xmlns:dc="http://purl.org/dc/elements/1.1/"
   xmlns:cc="http://creativecommons.org/ns#"
   xmlns:rdf="http://www.w3.org/1999/02/22-rdf-syntax-ns#"
   xmlns:svg="http://www.w3.org/2000/svg"
   xmlns="http://www.w3.org/2000/svg"
   xmlns:sodipodi="http://sodipodi.sourceforge.net/DTD/sodipodi-0.dtd"
   xmlns:inkscape="http://www.inkscape.org/namespaces/inkscape"
   width="200"
   height="200"
   viewBox="0 0 52.916665 52.916668"
   version="1.1"
   id="svg8"
   inkscape:version="0.92.3 (2405546, 2018-03-11)"
   sodipodi:docname="2a.svg">
  <defs
     id="defs2" />
  <sodipodi:namedview
     id="base"
     pagecolor="#ffffff"
     bordercolor="#666666"
     borderopacity="1.0"
     inkscape:pageopacity="0.0"
     inkscape:pageshadow="2"
     inkscape:zoom="3.959798"
     inkscape:cx="42.872211"
     inkscape:cy="99.153924"
     inkscape:document-units="px"
     inkscape:current-layer="g2056"
     showgrid="false"
     units="px"
     inkscape:window-width="1920"
     inkscape:window-height="1001"
     inkscape:window-x="1341"
     inkscape:window-y="572"
     inkscape:window-maximized="1" />
  <metadata
     id="metadata5">
    <rdf:RDF>
      <cc:Work
         rdf:about="">
        <dc:format>image/svg+xml</dc:format>
        <dc:type
           rdf:resource="http://purl.org/dc/dcmitype/StillImage" />
        <dc:title />
      </cc:Work>
    </rdf:RDF>
  </metadata>
  <g
     inkscape:label="Layer 1"
     inkscape:groupmode="layer"
     id="layer1"
     transform="translate(0,-244.08332)">
    <g
       id="g2056"
       transform="matrix(1,0,-0.1057975,1,28.801945,0)">
      <path
         sodipodi:nodetypes="ccccc"
         inkscape:connector-curvature="0"
         id="rect1440"
         d="m 11.299434,255.89859 h 31.312422 v 22.1465 c -11.540341,2.25401 -14.026284,12.84594 -31.312422,7.65401 z"
         style="opacity:1;fill:#ffffff;fill-opacity:1;stroke:#999999;stroke-width:0.79374999;stroke-linejoin:miter;stroke-miterlimit:4;stroke-dasharray:none;stroke-dashoffset:0;stroke-opacity:1" />
      <g
         transform="translate(-0.21139499,-1.3019534)"
         id="g1474">
        <rect
           style="opacity:1;fill:#aade87;fill-opacity:1;stroke:none;stroke-width:0.19524738;stroke-linejoin:miter;stroke-miterlimit:4;stroke-dasharray:none;stroke-dashoffset:0;stroke-opacity:1"
           id="rect819"
           width="15.686012"
           height="1.417426"
           x="22.867558"
           y="263.26559"
           ry="0" />
        <path
           style="fill:#ffb380;stroke-width:0.02792789"
           d="m 15.607965,266.94579 c 0,-0.0559 -0.363187,-0.9514 -0.520568,-1.28354 -0.280253,-0.59143 -0.52784,-0.91278 -0.816866,-1.06024 -0.06516,-0.0332 -0.113564,-0.0755 -0.107564,-0.0938 0.02035,-0.0623 0.391763,-0.35441 0.548732,-0.43149 0.225784,-0.11088 0.476507,-0.10939 0.624371,0.003 0.174938,0.13382 0.461776,0.61107 0.67879,1.12937 0.0249,0.0595 0.04354,0.0387 0.228852,-0.25547 0.884322,-1.40364 2.430122,-3.00534 3.748933,-3.88451 0.510605,-0.34038 0.517606,-0.34388 0.578372,-0.28875 0.02751,0.025 0.07158,0.082 0.09794,0.12678 l 0.04794,0.0814 -0.184031,0.14747 c -1.243986,0.99687 -3.01503,3.26251 -3.822307,4.88976 -0.122625,0.24717 -0.145141,0.27515 -0.303336,0.37684 -0.09398,0.0604 -0.300777,0.20726 -0.459543,0.32631 -0.348374,0.26123 -0.339713,0.25572 -0.339713,0.21619 z"
           id="path1454"
           inkscape:connector-curvature="0" />
      </g>
      <g
         transform="translate(-0.21139499,-1.5381898)"
         id="g1470">
        <rect
           ry="0"
           y="270.54166"
           x="22.867558"
           height="1.417426"
           width="12.189733"
           id="rect1456"
           style="opacity:1;fill:#aade87;fill-opacity:1;stroke:none;stroke-width:0.17211789;stroke-linejoin:miter;stroke-miterlimit:4;stroke-dasharray:none;stroke-dashoffset:0;stroke-opacity:1" />
        <path
           inkscape:connector-curvature="0"
           id="path1458"
           d="m 15.607965,274.22183 c 0,-0.0559 -0.363187,-0.9514 -0.520568,-1.28354 -0.280253,-0.59143 -0.52784,-0.91278 -0.816866,-1.06024 -0.06516,-0.0332 -0.113564,-0.0755 -0.107564,-0.0938 0.02035,-0.0623 0.391763,-0.35441 0.548732,-0.43149 0.225784,-0.11088 0.476507,-0.10939 0.624371,0.003 0.174938,0.13382 0.461776,0.61107 0.67879,1.12937 0.0249,0.0595 0.04354,0.0387 0.228852,-0.25547 0.884322,-1.40364 2.430122,-3.00534 3.748933,-3.88451 0.510605,-0.34038 0.517606,-0.34388 0.578372,-0.28875 0.02751,0.025 0.07158,0.082 0.09794,0.12678 l 0.04794,0.0814 -0.184031,0.14747 c -1.243986,0.99687 -3.01503,3.26251 -3.822307,4.88976 -0.122625,0.24717 -0.145141,0.27515 -0.303336,0.37684 -0.09398,0.0604 -0.300777,0.20726 -0.459543,0.32631 -0.348374,0.26123 -0.339713,0.25572 -0.339713,0.21619 z"
           style="fill:#ffb380;stroke-width:0.02792789" />
      </g>
      <g
         transform="translate(-0.21139499,-1.3019551)"
         id="g1466">
        <rect
           style="opacity:1;fill:#aade87;fill-opacity:1;stroke:none;stroke-width:0.18435802;stroke-linejoin:miter;stroke-miterlimit:4;stroke-dasharray:none;stroke-dashoffset:0;stroke-opacity:1"
           id="rect1460"
           width="13.98512"
           height="1.417426"
           x="22.867558"
           y="277.34521"
           ry="0" />
        <path
           style="fill:#ffb380;stroke-width:0.02792789"
           d="m 15.607965,281.0254 c 0,-0.0559 -0.363187,-0.9514 -0.520568,-1.28354 -0.280253,-0.59143 -0.52784,-0.91278 -0.816866,-1.06024 -0.06516,-0.0332 -0.113564,-0.0755 -0.107564,-0.0938 0.02035,-0.0623 0.391763,-0.35441 0.548732,-0.43149 0.225784,-0.11088 0.476507,-0.10939 0.624371,0.003 0.174938,0.13382 0.461776,0.61107 0.67879,1.12937 0.0249,0.0595 0.04354,0.0387 0.228852,-0.25547 0.884322,-1.40364 2.430122,-3.00534 3.748933,-3.88451 0.510605,-0.34038 0.517606,-0.34388 0.578372,-0.28875 0.02751,0.025 0.07158,0.082 0.09794,0.12678 l 0.04794,0.0814 -0.184031,0.14747 c -1.243986,0.99687 -3.01503,3.26251 -3.822307,4.88976 -0.122625,0.24717 -0.145141,0.27515 -0.303336,0.37684 -0.09398,0.0604 -0.300777,0.20726 -0.459543,0.32631 -0.348374,0.26123 -0.339713,0.25572 -0.339713,0.21619 z"
           id="path1462"
           inkscape:connector-curvature="0" />
      </g>
    </g>
  </g>
</svg>
