<?xml version="1.0" encoding="UTF-8" standalone="no"?>
<!-- Created with Inkscape (http://www.inkscape.org/) -->

<svg
   xmlns:dc="http://purl.org/dc/elements/1.1/"
   xmlns:cc="http://creativecommons.org/ns#"
   xmlns:rdf="http://www.w3.org/1999/02/22-rdf-syntax-ns#"
   xmlns:svg="http://www.w3.org/2000/svg"
   xmlns="http://www.w3.org/2000/svg"
   xmlns:sodipodi="http://sodipodi.sourceforge.net/DTD/sodipodi-0.dtd"
   xmlns:inkscape="http://www.inkscape.org/namespaces/inkscape"
   width="1200"
   height="800"
   viewBox="0 0 317.5 211.66667"
   version="1.1"
   id="svg8"
   inkscape:version="0.92.3 (2405546, 2018-03-11)"
   sodipodi:docname="KGs_first.svg">
  <defs
     id="defs2">
    <marker
       inkscape:isstock="true"
       style="overflow:visible;"
       id="marker15113"
       refX="0.0"
       refY="0.0"
       orient="auto"
       inkscape:stockid="Arrow2Mend">
      <path
         transform="scale(0.6) rotate(180) translate(0,0)"
         d="M 8.7185878,4.0337352 L -2.2072895,0.016013256 L 8.7185884,-4.0017078 C 6.9730900,-1.6296469 6.9831476,1.6157441 8.7185878,4.0337352 z "
         style="fill-rule:evenodd;stroke-width:0.625;stroke-linejoin:round;stroke:#999999;stroke-opacity:1;fill:#999999;fill-opacity:1"
         id="path15111" />
    </marker>
    <marker
       inkscape:stockid="Arrow2Mend"
       orient="auto"
       refY="0.0"
       refX="0.0"
       id="marker13403"
       style="overflow:visible;"
       inkscape:isstock="true">
      <path
         id="path13401"
         style="fill-rule:evenodd;stroke-width:0.625;stroke-linejoin:round;stroke:#999999;stroke-opacity:1;fill:#999999;fill-opacity:1"
         d="M 8.7185878,4.0337352 L -2.2072895,0.016013256 L 8.7185884,-4.0017078 C 6.9730900,-1.6296469 6.9831476,1.6157441 8.7185878,4.0337352 z "
         transform="scale(0.6) rotate(180) translate(0,0)" />
    </marker>
    <marker
       inkscape:isstock="true"
       style="overflow:visible;"
       id="marker11615"
       refX="0.0"
       refY="0.0"
       orient="auto"
       inkscape:stockid="Arrow2Mend">
      <path
         transform="scale(0.6) rotate(180) translate(0,0)"
         d="M 8.7185878,4.0337352 L -2.2072895,0.016013256 L 8.7185884,-4.0017078 C 6.9730900,-1.6296469 6.9831476,1.6157441 8.7185878,4.0337352 z "
         style="fill-rule:evenodd;stroke-width:0.625;stroke-linejoin:round;stroke:#999999;stroke-opacity:1;fill:#999999;fill-opacity:1"
         id="path11613" />
    </marker>
    <marker
       inkscape:stockid="Arrow2Mend"
       orient="auto"
       refY="0.0"
       refX="0.0"
       id="marker9923"
       style="overflow:visible;"
       inkscape:isstock="true">
      <path
         id="path9921"
         style="fill-rule:evenodd;stroke-width:0.625;stroke-linejoin:round;stroke:#999999;stroke-opacity:1;fill:#999999;fill-opacity:1"
         d="M 8.7185878,4.0337352 L -2.2072895,0.016013256 L 8.7185884,-4.0017078 C 6.9730900,-1.6296469 6.9831476,1.6157441 8.7185878,4.0337352 z "
         transform="scale(0.6) rotate(180) translate(0,0)" />
    </marker>
    <marker
       inkscape:stockid="Arrow2Mend"
       orient="auto"
       refY="0.0"
       refX="0.0"
       id="marker8027"
       style="overflow:visible;"
       inkscape:isstock="true">
      <path
         id="path8025"
         style="fill-rule:evenodd;stroke-width:0.625;stroke-linejoin:round;stroke:#999999;stroke-opacity:1;fill:#999999;fill-opacity:1"
         d="M 8.7185878,4.0337352 L -2.2072895,0.016013256 L 8.7185884,-4.0017078 C 6.9730900,-1.6296469 6.9831476,1.6157441 8.7185878,4.0337352 z "
         transform="scale(0.6) rotate(180) translate(0,0)" />
    </marker>
    <marker
       inkscape:isstock="true"
       style="overflow:visible;"
       id="marker6797"
       refX="0.0"
       refY="0.0"
       orient="auto"
       inkscape:stockid="Arrow2Mend">
      <path
         transform="scale(0.6) rotate(180) translate(0,0)"
         d="M 8.7185878,4.0337352 L -2.2072895,0.016013256 L 8.7185884,-4.0017078 C 6.9730900,-1.6296469 6.9831476,1.6157441 8.7185878,4.0337352 z "
         style="fill-rule:evenodd;stroke-width:0.625;stroke-linejoin:round;stroke:#999999;stroke-opacity:1;fill:#999999;fill-opacity:1"
         id="path6795" />
    </marker>
    <marker
       inkscape:stockid="Arrow2Mend"
       orient="auto"
       refY="0"
       refX="0"
       id="marker1509"
       style="overflow:visible"
       inkscape:isstock="true">
      <path
         id="path1507"
         style="fill:#f2f2f2;fill-opacity:1;fill-rule:evenodd;stroke:#f2f2f2;stroke-width:0.625;stroke-linejoin:round;stroke-opacity:1"
         d="M 8.7185878,4.0337352 -2.2072895,0.01601326 8.7185884,-4.0017078 c -1.7454984,2.3720609 -1.7354408,5.6174519 -6e-7,8.035443 z"
         transform="scale(-0.6)"
         inkscape:connector-curvature="0" />
    </marker>
    <marker
       inkscape:stockid="Arrow2Send"
       orient="auto"
       refY="0"
       refX="0"
       id="Arrow2Send"
       style="overflow:visible"
       inkscape:isstock="true">
      <path
         id="path1232"
         style="fill:#ffffff;fill-opacity:1;fill-rule:evenodd;stroke:#ffffff;stroke-width:0.625;stroke-linejoin:round;stroke-opacity:1"
         d="M 8.7185878,4.0337352 -2.2072895,0.01601326 8.7185884,-4.0017078 c -1.7454984,2.3720609 -1.7354408,5.6174519 -6e-7,8.035443 z"
         transform="matrix(-0.3,0,0,-0.3,0.69,0)"
         inkscape:connector-curvature="0" />
    </marker>
    <marker
       inkscape:stockid="Arrow2Mend"
       orient="auto"
       refY="0"
       refX="0"
       id="Arrow2Mend"
       style="overflow:visible"
       inkscape:isstock="true">
      <path
         id="path1226"
         style="fill:#ffffff;fill-opacity:1;fill-rule:evenodd;stroke:#ffffff;stroke-width:0.625;stroke-linejoin:round;stroke-opacity:1"
         d="M 8.7185878,4.0337352 -2.2072895,0.01601326 8.7185884,-4.0017078 c -1.7454984,2.3720609 -1.7354408,5.6174519 -6e-7,8.035443 z"
         transform="scale(-0.6)"
         inkscape:connector-curvature="0" />
    </marker>
  </defs>
  <sodipodi:namedview
     id="base"
     pagecolor="#ffffff"
     bordercolor="#666666"
     borderopacity="1.0"
     inkscape:pageopacity="0.0"
     inkscape:pageshadow="2"
     inkscape:zoom="0.98994949"
     inkscape:cx="791.35583"
     inkscape:cy="257.52281"
     inkscape:document-units="px"
     inkscape:current-layer="layer8"
     showgrid="false"
     units="px"
     inkscape:window-width="1920"
     inkscape:window-height="1001"
     inkscape:window-x="1341"
     inkscape:window-y="572"
     inkscape:window-maximized="1"
     inkscape:snap-smooth-nodes="false"
     inkscape:snap-global="true"
     inkscape:snap-object-midpoints="true" />
  <metadata
     id="metadata5">
    <rdf:RDF>
      <cc:Work
         rdf:about="">
        <dc:format>image/svg+xml</dc:format>
        <dc:type
           rdf:resource="http://purl.org/dc/dcmitype/StillImage" />
        <dc:title />
      </cc:Work>
    </rdf:RDF>
  </metadata>
  <g
     inkscape:groupmode="layer"
     id="layer8"
     inkscape:label="MaterialsMine">
    <g
       style="display:inline"
       id="g869"
       transform="matrix(2,0,0,2,7.8457836,-403.45434)">
      <path
         style="opacity:1;fill:#e6e6e6;fill-opacity:1;stroke:#999999;stroke-width:0.68449312;stroke-linejoin:miter;stroke-miterlimit:4;stroke-dasharray:none;stroke-dashoffset:0;stroke-opacity:1"
         d="m 39.398687,275.67851 c 0,0 -6e-6,5.06742 0,6.91922 -6e-6,1.85181 -5.596191,3.353 -12.499433,3.353 -6.903242,0 -12.499425,-1.50119 -12.49943,-3.353 5e-6,-1.8518 -1e-6,-6.91922 -1e-6,-6.91922"
         id="path876"
         inkscape:connector-curvature="0"
         sodipodi:nodetypes="ccscc"
         transform="matrix(1.344712,0,0,1,-9.2724954,-7.2916666e-7)" />
      <path
         style="opacity:1;fill:#e6e6e6;fill-opacity:1;stroke:#999999;stroke-width:0.68449312;stroke-linejoin:miter;stroke-miterlimit:4;stroke-dasharray:none;stroke-dashoffset:0;stroke-opacity:1"
         d="m 39.398687,275.67851 a 12.499431,3.3529936 0 0 1 -12.499433,3.353 12.499431,3.3529936 0 0 1 -12.49943,-3.353 12.499431,3.3529936 0 0 1 12.49943,-3.35299 12.499431,3.3529936 0 0 1 12.499433,3.35299 z"
         id="path878"
         inkscape:connector-curvature="0"
         transform="matrix(1.344712,0,0,1,-9.2724954,-7.2916666e-7)" />
      <g
         transform="matrix(1.2889498,0,0,0.76308918,1.8765056,69.262775)"
         id="g874">
        <path
           style="opacity:1;fill:#e6e6e6;fill-opacity:1;stroke:#999999;stroke-width:0.80034655;stroke-linejoin:miter;stroke-miterlimit:4;stroke-dasharray:none;stroke-dashoffset:0;stroke-opacity:1"
           d="m 32.453463,259.21768 c 0,0 -6e-6,6.64066 0,9.06738 -6e-6,2.42672 -5.838291,4.39397 -13.040179,4.39397 -7.201888,0 -13.0401714,-1.96725 -13.0401774,-4.39397 6e-6,-2.42672 -1e-6,-9.06738 -1e-6,-9.06738"
           id="path870"
           inkscape:connector-curvature="0"
           sodipodi:nodetypes="ccscc" />
        <path
           style="opacity:1;fill:#e6e6e6;fill-opacity:1;stroke:#999999;stroke-width:0.80034655;stroke-linejoin:miter;stroke-miterlimit:4;stroke-dasharray:none;stroke-dashoffset:0;stroke-opacity:1"
           d="m 32.453463,259.21768 a 13.040178,4.3939734 0 0 1 -13.040179,4.39398 13.040178,4.3939734 0 0 1 -13.0401774,-4.39398 13.040178,4.3939734 0 0 1 13.0401774,-4.39397 13.040178,4.3939734 0 0 1 13.040179,4.39397 z"
           id="path872"
           inkscape:connector-curvature="0" />
      </g>
      <g
         id="g841"
         transform="matrix(1.2889498,0,0,0.76308918,1.8765056,60.653244)">
        <path
           sodipodi:nodetypes="ccscc"
           inkscape:connector-curvature="0"
           id="ellipse829"
           d="m 32.453463,259.21768 c 0,0 -6e-6,6.64066 0,9.06738 -6e-6,2.42672 -5.838291,4.39397 -13.040179,4.39397 -7.201888,0 -13.0401714,-1.96725 -13.0401774,-4.39397 6e-6,-2.42672 -1e-6,-9.06738 -1e-6,-9.06738"
           style="opacity:1;fill:#e6e6e6;fill-opacity:1;stroke:#999999;stroke-width:0.80034655;stroke-linejoin:miter;stroke-miterlimit:4;stroke-dasharray:none;stroke-dashoffset:0;stroke-opacity:1" />
        <path
           inkscape:connector-curvature="0"
           id="path827"
           d="m 32.453463,259.21768 a 13.040178,4.3939734 0 0 1 -13.040179,4.39398 13.040178,4.3939734 0 0 1 -13.0401774,-4.39398 13.040178,4.3939734 0 0 1 13.0401774,-4.39397 13.040178,4.3939734 0 0 1 13.040179,4.39397 z"
           style="opacity:1;fill:#e6e6e6;fill-opacity:1;stroke:#999999;stroke-width:0.80034655;stroke-linejoin:miter;stroke-miterlimit:4;stroke-dasharray:none;stroke-dashoffset:0;stroke-opacity:1" />
      </g>
      <circle
         r="1.2284226"
         cy="264.21057"
         cx="15.497022"
         id="path882"
         style="opacity:1;fill:#ffb380;fill-opacity:1;stroke:none;stroke-width:0.79374999;stroke-linejoin:miter;stroke-miterlimit:4;stroke-dasharray:none;stroke-dashoffset:0;stroke-opacity:1" />
      <circle
         style="opacity:1;fill:#ffffff;fill-opacity:1;stroke:none;stroke-width:0.79374999;stroke-linejoin:miter;stroke-miterlimit:4;stroke-dasharray:none;stroke-dashoffset:0;stroke-opacity:1"
         id="circle884"
         cx="15.497022"
         cy="272.76227"
         r="1.2284226" />
      <circle
         r="1.2284226"
         cy="281.31396"
         cx="15.497022"
         id="circle886"
         style="opacity:1;fill:#aade87;fill-opacity:1;stroke:none;stroke-width:0.79374999;stroke-linejoin:miter;stroke-miterlimit:4;stroke-dasharray:none;stroke-dashoffset:0;stroke-opacity:1" />
    </g>
    <g
       aria-label="materialsmine.org"
       transform="translate(0,-85.333322)"
       style="font-style:normal;font-variant:normal;font-weight:normal;font-stretch:normal;font-size:2.82222223px;line-height:1;font-family:console;-inkscape-font-specification:console;letter-spacing:0px;word-spacing:0px;display:inline;fill:#008080;fill-opacity:1;stroke:none;stroke-width:0.26458332"
       id="text901">
      <path
         d="m 20.32873,266.70505 v -4.00596 q 0,-0.47749 -0.03721,-0.88057 -0.03721,-0.40927 -0.15503,-0.63872 -0.124023,-0.24804 -0.353466,-0.36587 -0.229444,-0.11782 -0.620118,-0.11782 -0.359668,0 -0.775146,0.22324 -0.409278,0.21704 -0.849561,0.63252 0.0062,0.10542 0.0124,0.25425 0.0124,0.14263 0.0124,0.34107 v 4.55786 h -1.16582 v -4.00596 q 0,-0.47749 -0.03721,-0.88057 -0.03721,-0.40927 -0.15503,-0.63872 -0.124023,-0.24804 -0.353467,-0.36587 -0.229443,-0.11782 -0.620117,-0.11782 -0.378271,0 -0.79375,0.23565 -0.415478,0.23564 -0.806152,0.60151 v 5.17178 h -1.165821 v -6.92671 h 1.165821 v 0.76894 q 0.458886,-0.45888 0.905371,-0.70693 0.452685,-0.25425 0.992187,-0.25425 0.613917,0 1.085206,0.27905 0.47749,0.27906 0.725537,0.91778 0.527099,-0.58911 1.029394,-0.89297 0.502295,-0.30386 1.091407,-0.30386 0.446484,0 0.812353,0.14263 0.365869,0.13642 0.638721,0.44648 0.279053,0.31626 0.427881,0.78755 0.155029,0.47129 0.155029,1.18443 v 4.55786 z"
         style="font-style:normal;font-variant:normal;font-weight:normal;font-stretch:normal;font-size:12.70000076px;font-family:Tahoma;-inkscape-font-specification:Tahoma;fill:#008080;stroke-width:0.26458332"
         id="path898" />
      <path
         d="m 27.001191,264.99973 v -1.92237 q -0.415478,0.0372 -1.054199,0.10542 -0.632519,0.062 -1.023193,0.17984 -0.465088,0.14262 -0.768946,0.44028 -0.303857,0.29145 -0.303857,0.81855 0,0.59532 0.334863,0.89917 0.334864,0.30386 0.979785,0.30386 0.551905,0 0.998389,-0.23564 0.446485,-0.24185 0.837158,-0.58911 z m 0,0.96738 q -0.142627,0.10542 -0.384472,0.29765 -0.235645,0.18604 -0.458887,0.29766 -0.310059,0.16123 -0.601514,0.24805 -0.285254,0.0868 -0.806152,0.0868 -0.427881,0 -0.812354,-0.16123 -0.384472,-0.16123 -0.675927,-0.45268 -0.279053,-0.28526 -0.446485,-0.70073 -0.167431,-0.42168 -0.167431,-0.88677 0,-0.71934 0.303857,-1.22163 0.303857,-0.5085 0.961182,-0.80616 0.58291,-0.26665 1.37666,-0.36586 0.79375,-0.10542 1.711523,-0.15503 v -0.22325 q 0,-0.40927 -0.124023,-0.65732 -0.124023,-0.25425 -0.347266,-0.39067 -0.223242,-0.14263 -0.545703,-0.18604 -0.322461,-0.0496 -0.663525,-0.0496 -0.403076,0 -0.94878,0.12402 -0.545703,0.11783 -1.091406,0.34727 h -0.06821 v -1.18442 q 0.322461,-0.093 0.923975,-0.20464 0.601514,-0.11162 1.190625,-0.11162 0.713135,0 1.203027,0.11162 0.489893,0.11162 0.880567,0.40307 0.378271,0.28526 0.564306,0.73794 0.186036,0.45269 0.186036,1.10381 v 4.7377 h -1.15962 z"
         style="font-style:normal;font-variant:normal;font-weight:normal;font-stretch:normal;font-size:12.70000076px;font-family:Tahoma;-inkscape-font-specification:Tahoma;fill:#008080;stroke-width:0.26458332"
         id="path900" />
      <path
         d="m 31.900118,266.84147 q -0.954981,0 -1.488282,-0.5395 -0.5333,-0.5457 -0.5333,-1.71772 v -3.83853 h -0.787549 v -0.96738 h 0.787549 v -1.99058 h 1.16582 v 1.99058 h 2.145605 v 0.96738 h -2.145605 v 3.29282 q 0,0.5271 0.0186,0.81236 0.0186,0.28525 0.142627,0.5333 0.10542,0.21704 0.341065,0.32866 0.235644,0.10542 0.638721,0.10542 0.285254,0 0.551904,-0.0806 0.26665,-0.0868 0.384473,-0.14262 h 0.06821 v 1.048 q -0.328662,0.093 -0.669726,0.14262 -0.334863,0.0558 -0.620117,0.0558 z"
         style="font-style:normal;font-variant:normal;font-weight:normal;font-stretch:normal;font-size:12.70000076px;font-family:Tahoma;-inkscape-font-specification:Tahoma;fill:#008080;stroke-width:0.26458332"
         id="path902" />
      <path
         d="m 37.053292,266.86628 q -1.655713,0 -2.573487,-0.93018 -0.911572,-0.93637 -0.911572,-2.6541 0,-1.69292 0.886768,-2.69131 0.886767,-1.00459 2.319238,-1.00459 0.644922,0 1.141016,0.18604 0.496094,0.18603 0.868164,0.58291 0.37207,0.39687 0.570508,0.97358 0.198437,0.57051 0.198437,1.40147 v 0.63252 h -4.799707 q 0,1.20922 0.607715,1.84795 0.607715,0.63872 1.680518,0.63872 0.384472,0 0.750341,-0.0868 0.372071,-0.0868 0.669727,-0.22324 0.31626,-0.14263 0.533301,-0.27285 0.217041,-0.13643 0.359668,-0.25425 h 0.06821 v 1.27124 q -0.204639,0.0806 -0.508496,0.20464 -0.303858,0.11782 -0.545704,0.18603 -0.341064,0.093 -0.620117,0.14263 -0.272851,0.0496 -0.694531,0.0496 z m 1.364258,-4.39663 q -0.0124,-0.47129 -0.111621,-0.81236 -0.09922,-0.34106 -0.285254,-0.57671 -0.204639,-0.26044 -0.5271,-0.39687 -0.31626,-0.13643 -0.787549,-0.13643 -0.465088,0 -0.79375,0.14263 -0.322461,0.13643 -0.589111,0.40308 -0.260449,0.27285 -0.396875,0.60771 -0.136426,0.32866 -0.173633,0.76895 z"
         style="font-style:normal;font-variant:normal;font-weight:normal;font-stretch:normal;font-size:12.70000076px;font-family:Tahoma;-inkscape-font-specification:Tahoma;fill:#008080;stroke-width:0.26458332"
         id="path904" />
      <path
         d="m 44.414083,261.03098 h -0.06201 q -0.130224,-0.0372 -0.279052,-0.0434 -0.142627,-0.0124 -0.347266,-0.0124 -0.471289,0 -0.936377,0.20464 -0.465088,0.20464 -0.880567,0.60772 v 4.91753 h -1.16582 v -6.92671 h 1.16582 v 1.02939 q 0.638721,-0.5643 1.11001,-0.79375 0.47749,-0.23564 0.923975,-0.23564 0.179834,0 0.26665,0.0124 0.09302,0.006 0.204639,0.0248 z"
         style="font-style:normal;font-variant:normal;font-weight:normal;font-stretch:normal;font-size:12.70000076px;font-family:Tahoma;-inkscape-font-specification:Tahoma;fill:#008080;stroke-width:0.26458332"
         id="path906" />
      <path
         d="m 46.522483,266.70505 h -1.16582 v -6.92671 h 1.16582 z m 0.08062,-8.08633 h -1.32705 v -1.20923 h 1.32705 z"
         style="font-style:normal;font-variant:normal;font-weight:normal;font-stretch:normal;font-size:12.70000076px;font-family:Tahoma;-inkscape-font-specification:Tahoma;fill:#008080;stroke-width:0.26458332"
         id="path908" />
      <path
         d="m 52.103539,264.99973 v -1.92237 q -0.415479,0.0372 -1.054199,0.10542 -0.63252,0.062 -1.023194,0.17984 -0.465088,0.14262 -0.768945,0.44028 -0.303858,0.29145 -0.303858,0.81855 0,0.59532 0.334864,0.89917 0.334863,0.30386 0.979785,0.30386 0.551904,0 0.998389,-0.23564 0.446484,-0.24185 0.837158,-0.58911 z m 0,0.96738 q -0.142627,0.10542 -0.384473,0.29765 -0.235644,0.18604 -0.458887,0.29766 -0.310058,0.16123 -0.601513,0.24805 -0.285254,0.0868 -0.806153,0.0868 -0.427881,0 -0.812353,-0.16123 -0.384473,-0.16123 -0.675928,-0.45268 -0.279053,-0.28526 -0.446484,-0.70073 -0.167432,-0.42168 -0.167432,-0.88677 0,-0.71934 0.303857,-1.22163 0.303858,-0.5085 0.961182,-0.80616 0.58291,-0.26665 1.37666,-0.36586 0.79375,-0.10542 1.711524,-0.15503 v -0.22325 q 0,-0.40927 -0.124024,-0.65732 -0.124023,-0.25425 -0.347265,-0.39067 -0.223242,-0.14263 -0.545703,-0.18604 -0.322461,-0.0496 -0.663526,-0.0496 -0.403076,0 -0.948779,0.12402 -0.545703,0.11783 -1.091407,0.34727 h -0.06821 v -1.18442 q 0.322461,-0.093 0.923974,-0.20464 0.601514,-0.11162 1.190625,-0.11162 0.713135,0 1.203028,0.11162 0.489892,0.11162 0.880566,0.40307 0.378272,0.28526 0.564307,0.73794 0.186035,0.45269 0.186035,1.10381 v 4.7377 h -1.159619 z"
         style="font-style:normal;font-variant:normal;font-weight:normal;font-stretch:normal;font-size:12.70000076px;font-family:Tahoma;-inkscape-font-specification:Tahoma;fill:#008080;stroke-width:0.26458332"
         id="path910" />
      <path
         d="m 56.097091,266.70505 h -1.16582 v -9.64903 h 1.16582 z"
         style="font-style:normal;font-variant:normal;font-weight:normal;font-stretch:normal;font-size:12.70000076px;font-family:Tahoma;-inkscape-font-specification:Tahoma;fill:#008080;stroke-width:0.26458332"
         id="path912" />
      <path
         d="m 59.681369,266.87248 q -0.694531,0 -1.302246,-0.18604 -0.601514,-0.18603 -0.998389,-0.39687 v -1.30845 h 0.06201 q 0.148828,0.11782 0.347266,0.26045 0.204638,0.14263 0.539502,0.29766 0.297656,0.13642 0.651123,0.24184 0.359668,0.10542 0.74414,0.10542 0.279053,0 0.595313,-0.062 0.31626,-0.0682 0.471289,-0.16743 0.217041,-0.14263 0.310059,-0.30386 0.09922,-0.16123 0.09922,-0.48369 0,-0.41548 -0.229443,-0.62632 -0.223242,-0.21084 -0.799951,-0.35346 -0.223242,-0.0558 -0.58291,-0.13023 -0.359668,-0.0744 -0.663526,-0.16123 -0.79375,-0.22944 -1.153418,-0.70693 -0.359668,-0.48369 -0.359668,-1.16582 0,-0.93638 0.706934,-1.52549 0.706933,-0.58911 1.878955,-0.58911 0.576709,0 1.159619,0.14262 0.58291,0.14263 0.979785,0.35967 v 1.24644 h -0.06201 q -0.446485,-0.35347 -0.998389,-0.55811 -0.545703,-0.20464 -1.103809,-0.20464 -0.576709,0 -0.973584,0.24185 -0.396875,0.24184 -0.396875,0.73174 0,0.43408 0.235645,0.65112 0.235644,0.21084 0.756543,0.34727 0.260449,0.0682 0.576709,0.13642 0.322461,0.062 0.675928,0.14883 0.768945,0.19224 1.153418,0.63872 0.390673,0.44648 0.390673,1.21543 0,0.44648 -0.179834,0.84956 -0.173632,0.39688 -0.514697,0.68213 -0.37207,0.31006 -0.843359,0.47129 -0.465088,0.16123 -1.172022,0.16123 z"
         style="font-style:normal;font-variant:normal;font-weight:normal;font-stretch:normal;font-size:12.70000076px;font-family:Tahoma;-inkscape-font-specification:Tahoma;fill:#008080;stroke-width:0.26458332"
         id="path914" />
      <path
         d="m 71.351977,266.70505 v -4.00596 q 0,-0.47749 -0.03721,-0.88057 -0.03721,-0.40927 -0.15503,-0.63872 -0.124023,-0.24804 -0.353467,-0.36587 -0.229443,-0.11782 -0.620117,-0.11782 -0.359668,0 -0.775146,0.22324 -0.409278,0.21704 -0.849561,0.63252 0.0062,0.10542 0.0124,0.25425 0.0124,0.14263 0.0124,0.34107 v 4.55786 h -1.165821 v -4.00596 q 0,-0.47749 -0.03721,-0.88057 -0.03721,-0.40927 -0.155029,-0.63872 -0.124023,-0.24804 -0.353467,-0.36587 -0.229443,-0.11782 -0.620117,-0.11782 -0.378272,0 -0.79375,0.23565 -0.415479,0.23564 -0.806152,0.60151 v 5.17178 H 63.48889 v -6.92671 h 1.165821 v 0.76894 q 0.458886,-0.45888 0.905371,-0.70693 0.452685,-0.25425 0.992187,-0.25425 0.613916,0 1.085205,0.27905 0.477491,0.27906 0.725538,0.91778 0.527099,-0.58911 1.029394,-0.89297 0.502295,-0.30386 1.091406,-0.30386 0.446485,0 0.812354,0.14263 0.365869,0.13642 0.638721,0.44648 0.279052,0.31626 0.427881,0.78755 0.155029,0.47129 0.155029,1.18443 v 4.55786 z"
         style="font-style:normal;font-variant:normal;font-weight:normal;font-stretch:normal;font-size:12.70000076px;font-family:Tahoma;-inkscape-font-specification:Tahoma;fill:#008080;stroke-width:0.26458332"
         id="path916" />
      <path
         d="M 75.345531,266.70505 H 74.17971 v -6.92671 h 1.165821 z m 0.08062,-8.08633 h -1.327051 v -1.20923 h 1.327051 z"
         style="font-style:normal;font-variant:normal;font-weight:normal;font-stretch:normal;font-size:12.70000076px;font-family:Tahoma;-inkscape-font-specification:Tahoma;fill:#008080;stroke-width:0.26458332"
         id="path918" />
      <path
         d="m 82.501688,266.70505 h -1.16582 v -3.94395 q 0,-0.47749 -0.04961,-0.88677 -0.04341,-0.41547 -0.173633,-0.66352 -0.142627,-0.26045 -0.396875,-0.38447 -0.254248,-0.13023 -0.694531,-0.13023 -0.434082,0 -0.89917,0.23565 -0.458887,0.22944 -0.89917,0.60151 v 5.17178 h -1.16582 v -6.92671 h 1.16582 v 0.76894 q 0.520899,-0.46508 1.029395,-0.71313 0.508496,-0.24805 1.072803,-0.24805 1.023193,0 1.599902,0.67593 0.576709,0.66973 0.576709,1.94717 z"
         style="font-style:normal;font-variant:normal;font-weight:normal;font-stretch:normal;font-size:12.70000076px;font-family:Tahoma;-inkscape-font-specification:Tahoma;fill:#008080;stroke-width:0.26458332"
         id="path920" />
      <path
         d="m 87.158766,266.86628 q -1.655713,0 -2.573486,-0.93018 -0.911572,-0.93637 -0.911572,-2.6541 0,-1.69292 0.886767,-2.69131 0.886768,-1.00459 2.319239,-1.00459 0.644922,0 1.141015,0.18604 0.496094,0.18603 0.868164,0.58291 0.372071,0.39687 0.570508,0.97358 0.198438,0.57051 0.198438,1.40147 v 0.63252 h -4.799707 q 0,1.20922 0.607714,1.84795 0.607715,0.63872 1.680518,0.63872 0.384473,0 0.750342,-0.0868 0.37207,-0.0868 0.669727,-0.22324 0.316259,-0.14263 0.5333,-0.27285 0.217041,-0.13643 0.359668,-0.25425 h 0.06821 v 1.27124 q -0.204638,0.0806 -0.508496,0.20464 -0.303857,0.11782 -0.545703,0.18603 -0.341065,0.093 -0.620117,0.14263 -0.272852,0.0496 -0.694532,0.0496 z m 1.364258,-4.39663 q -0.0124,-0.47129 -0.111621,-0.81236 -0.09922,-0.34106 -0.285254,-0.57671 -0.204638,-0.26044 -0.527099,-0.39687 -0.31626,-0.13643 -0.787549,-0.13643 -0.465088,0 -0.79375,0.14263 -0.322461,0.13643 -0.589112,0.40308 -0.260449,0.27285 -0.396875,0.60771 -0.136425,0.32866 -0.173632,0.76895 z"
         style="font-style:normal;font-variant:normal;font-weight:normal;font-stretch:normal;font-size:12.70000076px;font-family:Tahoma;-inkscape-font-specification:Tahoma;fill:#008080;stroke-width:0.26458332"
         id="path922" />
      <path
         d="m 92.665407,266.70505 h -1.48208 v -1.76734 h 1.48208 z"
         style="font-style:normal;font-variant:normal;font-weight:normal;font-stretch:normal;font-size:12.70000076px;font-family:Tahoma;-inkscape-font-specification:Tahoma;fill:#008080;stroke-width:0.26458332"
         id="path924" />
      <path
         d="m 100.39207,263.24479 q 0,1.74873 -0.843362,2.70371 -0.84336,0.94878 -2.244824,0.94878 -1.444874,0 -2.275831,-0.97978 -0.824756,-0.98599 -0.824756,-2.67271 0,-1.73632 0.849561,-2.69751 0.855762,-0.96118 2.251026,-0.96118 1.401464,0 2.244824,0.96118 0.843362,0.95498 0.843362,2.69751 z m -1.20303,0 q 0,-1.34565 -0.489893,-1.99677 -0.489892,-0.65733 -1.395263,-0.65733 -0.911573,0 -1.407667,0.65733 -0.489892,0.65112 -0.489892,1.99677 0,1.30225 0.489892,1.97818 0.496094,0.66972 1.407667,0.66972 0.89917,0 1.389062,-0.65732 0.496094,-0.66353 0.496094,-1.99058 z"
         style="font-style:normal;font-variant:normal;font-weight:normal;font-stretch:normal;font-size:12.70000076px;font-family:Tahoma;-inkscape-font-specification:Tahoma;fill:#008080;stroke-width:0.26458332"
         id="path926" />
      <path
         d="m 105.25999,261.03098 h -0.062 q -0.13023,-0.0372 -0.27905,-0.0434 -0.14263,-0.0124 -0.34727,-0.0124 -0.47129,0 -0.93638,0.20464 -0.46508,0.20464 -0.88056,0.60772 v 4.91753 h -1.16582 v -6.92671 h 1.16582 v 1.02939 q 0.63872,-0.5643 1.11001,-0.79375 0.47749,-0.23564 0.92397,-0.23564 0.17984,0 0.26665,0.0124 0.093,0.006 0.20464,0.0248 z"
         style="font-style:normal;font-variant:normal;font-weight:normal;font-stretch:normal;font-size:12.70000076px;font-family:Tahoma;-inkscape-font-specification:Tahoma;fill:#008080;stroke-width:0.26458332"
         id="path928" />
      <path
         d="m 110.34495,264.82609 v -3.80132 q -0.43408,-0.21084 -0.80615,-0.29765 -0.36587,-0.093 -0.73174,-0.093 -0.88677,0 -1.39526,0.65112 -0.5085,0.65113 -0.5085,1.86656 0,1.15341 0.38447,1.75493 0.39068,0.60151 1.25884,0.60151 0.45269,0 0.93018,-0.17983 0.48369,-0.17984 0.86816,-0.5023 z m -3.91914,2.98897 q 0.11782,0.0496 0.34727,0.13022 0.22944,0.0868 0.52089,0.16123 0.32247,0.0806 0.59532,0.13023 0.27285,0.0496 0.59531,0.0496 0.5395,0 0.91157,-0.14263 0.37827,-0.14263 0.58911,-0.39688 0.19844,-0.25424 0.27906,-0.58911 0.0806,-0.33486 0.0806,-0.76274 v -0.60772 q -0.47129,0.40928 -0.92397,0.60772 -0.45269,0.19224 -1.13482,0.19224 -1.18442,0 -1.88515,-0.88057 -0.70074,-0.88057 -0.70074,-2.53008 0,-0.86196 0.24185,-1.52549 0.24184,-0.66972 0.65112,-1.13481 0.39068,-0.44649 0.92398,-0.68833 0.5333,-0.24185 1.10381,-0.24185 0.5395,0 0.93017,0.13023 0.39688,0.12402 0.79375,0.35966 l 0.0682,-0.29765 h 1.09761 v 6.13916 q 0,1.76113 -0.76894,2.58589 -0.76895,0.82475 -2.35025,0.82475 -0.50849,0 -1.0418,-0.0806 -0.52709,-0.0806 -0.98598,-0.21704 v -1.21543 z"
         style="font-style:normal;font-variant:normal;font-weight:normal;font-stretch:normal;font-size:12.70000076px;font-family:Tahoma;-inkscape-font-specification:Tahoma;fill:#008080;stroke-width:0.26458332"
         id="path930" />
    </g>
  </g>
</svg>
