<?xml version="1.0" encoding="UTF-8" standalone="no"?>
<!-- Generator: Adobe Illustrator 23.0.1, SVG Export Plug-In . SVG Version: 6.00 Build 0)  -->

<svg
   xmlns:dc="http://purl.org/dc/elements/1.1/"
   xmlns:cc="http://creativecommons.org/ns#"
   xmlns:rdf="http://www.w3.org/1999/02/22-rdf-syntax-ns#"
   xmlns:svg="http://www.w3.org/2000/svg"
   xmlns="http://www.w3.org/2000/svg"
   xmlns:sodipodi="http://sodipodi.sourceforge.net/DTD/sodipodi-0.dtd"
   xmlns:inkscape="http://www.inkscape.org/namespaces/inkscape"
   version="1.1"
   id="Layer_1"
   x="0px"
   y="0px"
   viewBox="0 0 520 180"
   enable-background="new 0 0 612 301.1"
   xml:space="preserve"
   sodipodi:docname="duke_wordmark_royalblue_00539B.svg"
   width="520"
   height="180"
   inkscape:version="0.92.3 (2405546, 2018-03-11)"><metadata
   id="metadata17"><rdf:RDF><cc:Work
       rdf:about=""><dc:format>image/svg+xml</dc:format><dc:type
         rdf:resource="http://purl.org/dc/dcmitype/StillImage" /><dc:title>Artboard 2</dc:title></cc:Work></rdf:RDF></metadata><defs
   id="defs15" /><sodipodi:namedview
   pagecolor="#ffffff"
   bordercolor="#666666"
   borderopacity="1"
   objecttolerance="10"
   gridtolerance="10"
   guidetolerance="10"
   inkscape:pageopacity="0"
   inkscape:pageshadow="2"
   inkscape:window-width="1920"
   inkscape:window-height="1001"
   id="namedview13"
   showgrid="false"
   inkscape:zoom="2.2156863"
   inkscape:cx="203.92298"
   inkscape:cy="89.164193"
   inkscape:window-x="1341"
   inkscape:window-y="572"
   inkscape:window-maximized="1"
   inkscape:current-layer="Layer_1" />
<title
   id="title2">Artboard 2</title>
<path
   d="m 34.404554,174.25378 c -3.711938,0 -7.88785,0.23198 -12.295774,0.46398 -4.407911,0.232 -8.119849,0.46399 -11.13579,0.46399 -0.927984,0 -1.8559695,0 -2.7839545,-0.23199 -1.159971,0 -1.8559574,-0.92797 -1.8559574,-2.08796 0,0 0,0 0,-0.23199 0,-1.15999 0.6959864,-2.31996 1.8559574,-3.01595 2.3199675,-1.39198 5.1039095,-2.31996 7.8878635,-2.55194 1.39197,-0.232 2.783941,-0.464 4.175912,-0.92799 1.391983,-0.464 2.783954,-1.15999 3.711938,-2.31995 1.159972,-1.39199 2.087956,-3.01596 2.783942,-4.87192 0.695985,-2.78395 1.159983,-5.79989 0.927984,-8.81583 V 27.864536 c 0,-1.159978 -0.695985,-2.319957 -1.855969,-2.783948 -1.39197,-0.695986 -3.01594,-1.159978 -4.639911,-1.391974 -1.855957,-0.231995 -3.711926,-0.463992 -5.799894,-0.463992 -2.087956,0 -3.943925,-0.231995 -5.5678955,-0.46399 C 6.7970645,22.528636 4.9411078,22.064645 3.7811244,21.83265 2.62114,21.600654 1.9251544,20.440675 2.1571537,19.280697 c 0,-0.927983 0.4639863,-1.855965 1.1599844,-2.551951 0.6959847,-0.695988 1.6239697,-1.15998 2.7839407,-1.391975 1.1599847,-0.231996 2.0879567,-0.463991 3.2479407,-0.463991 1.1599835,0 2.0879565,-0.231996 3.0159405,-0.231996 h 23.663565 c 6.495879,0 12.991746,-0.231995 19.487626,-0.695987 6.495885,-0.463992 13.91974,-0.695987 22.271583,-0.695987 12.991757,0 25.983526,1.62397 38.511286,5.103904 11.36778,3.24794 22.03959,8.583839 31.31942,16.0077 9.04783,7.655857 16.47169,17.167678 21.1116,27.839479 5.5679,12.75976 8.11985,26.447503 7.88785,40.367247 0,9.51181 -2.08797,19.02363 -6.49588,27.60747 -4.17592,8.58384 -9.97581,16.23969 -17.39967,22.50357 -7.65586,6.49587 -16.2397,11.83178 -25.51951,15.3117 -9.97582,3.71194 -20.64763,5.56791 -31.319425,5.56791 H 34.404554 m 15.543702,-31.7834 c 0,4.17592 0.927985,8.11984 2.783954,11.59978 1.855957,3.24794 4.407911,6.03188 7.655851,8.11984 3.247939,2.31997 6.959867,3.94393 10.671805,4.87191 3.943927,0.92798 8.119853,1.62396 12.29577,1.62396 4.175916,0 8.351842,-0.69598 12.295769,-1.62396 5.103915,-1.15998 9.975825,-2.78394 14.615735,-4.87191 5.33589,-2.31996 10.43981,-5.3359 15.07971,-8.81583 5.10391,-3.71193 9.74382,-8.11985 13.45575,-13.22374 4.17592,-5.33591 7.42386,-11.36779 9.74382,-17.86367 2.55196,-7.65585 3.71192,-15.5437 3.71192,-23.43157 0,-8.119828 -1.15996,-16.471673 -3.71192,-24.127529 C 144.13849,60.343927 135.55466,48.512149 124.18686,39.696313 118.85097,35.752388 113.05108,32.040457 107.0192,29.25651 95.883405,24.152606 84.051623,21.368658 71.755854,21.136661 c -4.175927,0 -8.351853,0.231997 -12.527764,0.695989 -2.319956,0.231995 -4.407924,0.927982 -6.49588,1.855964 -1.159984,0.463992 -2.087968,1.62397 -2.551955,2.783949 -0.231999,0.927982 -0.463986,1.855964 -0.463986,2.783947 z"
   id="path4"
   inkscape:connector-curvature="0"
   style="fill:#00539b;stroke-width:2.3199563" />
<path
   d="m 229.5129,178.89369 c -5.1039,0.23199 -10.43981,-0.69599 -15.31171,-2.55195 -3.94393,-1.62398 -7.19187,-4.17593 -9.51182,-7.42387 -2.31996,-3.47993 -4.17592,-7.42386 -4.87191,-11.59977 -0.92799,-4.87191 -1.39197,-9.97583 -1.39197,-15.07972 0,-3.94393 0,-8.35183 0.23198,-13.22375 0,-4.87191 0.232,-9.74382 0.232,-14.61573 0,-5.1039 0,-9.97579 0.232,-14.615713 0,-4.871912 0.23199,-9.047828 0.23199,-12.759766 0.232,-1.623968 -0.92797,-3.247938 -2.55194,-3.711924 -1.62397,-0.463987 -3.47994,-0.927984 -4.87192,-1.391971 -2.08796,-0.463999 -4.17591,-1.159984 -6.26388,-1.855969 -0.92797,-0.231999 -1.62396,-0.927985 -1.62396,-1.855965 0,-0.927983 0.69599,-1.855965 1.62396,-2.08796 0,0 0,0 0.23199,0 1.62398,-0.231996 3.01594,-0.231996 4.63992,-0.231996 1.85596,0 3.71194,0 5.56789,0.231996 1.85597,0.231995 3.71194,0.231995 5.56791,0.231995 1.85596,0 3.94392,0 5.79988,-0.231995 1.85597,-0.231996 3.94393,-0.231996 5.79989,-0.231996 1.85598,0 2.78395,0.231996 3.24794,0.927982 0.46399,1.159979 0.69599,2.551953 0.69599,3.943924 0,11.599792 0,23.199578 -0.232,34.799348 -0.23199,11.59978 -0.23199,22.96756 -0.23199,34.79932 -0.232,4.63993 1.85596,9.27984 5.33589,12.29578 4.40792,3.01594 9.74383,4.63991 15.07972,4.17593 5.7999,0.232 11.3678,-0.464 16.93569,-2.08797 3.47994,-0.92797 6.49588,-2.78395 9.27982,-5.3359 2.08797,-2.08795 3.47994,-4.63991 3.94393,-7.42386 0.69599,-2.55194 0.92798,-5.3359 0.92798,-8.11984 0,-9.27983 0,-18.55966 0.232,-27.83947 0.232,-9.27982 0.232,-18.327644 0.232,-27.839472 0,-0.695988 -0.232,-1.159987 -0.464,-1.855975 -0.46399,-0.695981 -1.15997,-1.159967 -1.85596,-1.391967 -0.92798,-0.231998 -2.31996,-0.695984 -3.94394,-1.159983 -1.62395,-0.463986 -4.1759,-1.159971 -7.19185,-1.855957 -0.92798,-0.231999 -2.55196,-0.927985 -4.63992,-1.623969 -2.08795,-0.695986 -3.01594,-1.623971 -3.01594,-2.551955 0,-0.927984 0.69599,-1.391975 1.85596,-1.62397 1.39198,-0.231996 2.55197,-0.463991 3.94393,-0.463991 2.31996,0 4.40792,0 6.72787,0.231995 2.08797,0.231996 4.40793,0.231996 6.72788,0.231996 2.55195,0 5.10391,0 7.65585,-0.231996 2.55195,-0.231995 5.10391,-0.231995 7.65587,-0.231995 1.15996,0 2.31995,0.463991 3.47993,0.927982 1.39197,0.695986 2.08796,2.087963 2.08796,4.639918 0,13.223756 -0.232,26.215489 -0.464,39.439239 -0.23199,12.99177 -0.46399,26.21551 -0.46399,39.43926 0,2.78395 0.92799,4.40792 2.55196,5.1039 1.39197,0.69599 2.78394,0.92799 4.17592,0.92799 5.1039,0 8.58384,0 10.43981,0.23199 2.08796,0.232 3.01594,0.92798 3.01594,2.31995 0,0.92799 -0.464,1.62398 -1.15998,2.08798 -1.39198,0.46397 -2.55196,0.92797 -3.94393,0.92797 -9.27982,1.39198 -16.47168,2.55196 -21.5756,3.47993 -3.24794,0.69599 -6.49588,1.15999 -9.74381,1.62398 -0.92798,0 -1.62397,-0.46399 -1.85596,-1.15998 -0.232,-0.92799 -0.232,-2.08796 -0.232,-3.01594 v -6.03189 c 0,-2.08796 -0.69599,-3.01594 -1.85597,-3.01594 -1.62397,0.232 -3.24794,1.15997 -4.40791,2.31995 -1.85597,1.62397 -4.40792,3.24794 -7.42386,5.33589 -3.24794,2.08798 -6.95987,3.94393 -10.67181,5.33592 -5.33589,1.62396 -9.97581,2.55194 -14.61572,2.31995"
   id="path6"
   inkscape:connector-curvature="0"
   style="fill:#00539b;stroke-width:2.3199563" />
<path
   d="m 327.87906,26.240566 c 0.23199,-2.551952 -0.464,-5.3359 -1.85597,-7.423861 -1.15998,-1.391973 -2.78396,-2.551952 -4.40791,-3.015943 -1.62397,-0.695987 -3.01595,-1.159978 -4.40793,-1.391973 -1.15997,-0.231997 -2.08795,-1.159979 -1.85596,-2.319957 0,-0.927983 0.464,-1.62397 1.39197,-1.855965 1.39198,-0.6959884 2.78396,-1.1599792 4.17592,-1.6239702 l 17.63167,-6.7278734 c 0.69599,-0.2319963 1.39199,-0.4639915 2.08797,-0.4639915 h 2.31996 c 0.69598,0 1.39196,0.4639915 1.85596,0.9279819 0.69599,1.159979 1.15998,2.5519524 0.92798,3.7119306 V 113.00694 c 0,2.78394 0.69599,4.17592 2.31995,4.17592 1.39199,-0.464 2.78395,-0.92799 3.94394,-1.62397 2.31995,-1.15999 5.10389,-2.55195 8.11983,-4.40793 3.01596,-1.85596 6.49589,-3.94393 9.97583,-6.03187 3.47994,-2.31995 6.72786,-4.40791 9.74382,-6.49588 3.01594,-2.087971 5.33589,-3.943913 7.42384,-5.567898 2.08798,-1.623965 3.01596,-3.01594 3.01596,-3.711939 0,-1.391965 -0.464,-3.01594 -1.62397,-3.94392 -0.92799,-0.927972 -2.08796,-1.62397 -3.47994,-2.319956 -1.15999,-0.695984 -2.31995,-1.159971 -3.47994,-1.855956 -0.92797,-0.463999 -1.62396,-1.391983 -1.62396,-2.551955 0,-0.695989 0.464,-1.391977 1.15997,-1.855968 0.69599,-0.463991 1.62398,-0.695986 2.55196,-0.695986 2.78395,0 6.03188,0 9.51182,0.231995 3.47994,0.231996 6.95987,0.231996 10.43981,0.231996 3.24794,0 6.72787,0 10.20781,-0.231996 3.47993,-0.231995 6.72787,-0.231995 9.27982,-0.231995 1.15997,0 2.31996,0.231995 3.47993,0.463991 1.15999,0.463991 1.62397,1.391974 1.62397,2.551949 0,0.695986 -0.46398,1.39197 -1.39197,1.855969 -1.15998,0.695986 -2.31996,1.159972 -3.47994,1.623971 -1.39197,0.463985 -2.78394,0.927984 -4.40791,1.39197 -1.39199,0.463999 -2.55195,0.927984 -3.47994,1.159984 -1.85596,0.927985 -5.56789,2.783942 -11.13579,5.799882 -5.56789,3.015951 -11.13579,6.263889 -16.93569,9.743822 -5.79989,3.47993 -10.90378,6.72786 -15.5437,9.74381 -4.40792,3.01594 -6.72787,4.87191 -6.72787,5.5679 0,0.69598 0.23199,1.62396 0.69598,2.31995 0.464,0.464 0.92799,0.92798 1.39197,1.39197 l 45.00716,40.83124 c 2.31995,2.08795 4.87192,3.94392 7.65587,5.56789 2.55194,1.15997 4.6399,2.31995 6.72786,3.01594 1.85597,0.69599 3.47994,1.39198 4.63991,1.85598 1.15999,0.46397 1.62397,1.15996 1.62397,2.08795 0,1.62396 -2.31995,2.55195 -6.72786,2.55195 -2.78396,0 -5.7999,-0.232 -9.04783,-0.464 -3.24794,-0.23199 -6.95987,-0.46399 -10.9038,-0.46399 -3.24794,0 -6.49588,0.232 -9.97582,0.46399 -3.01594,0.232 -6.26388,0.464 -9.27982,0.464 -2.08797,0 -3.94392,0 -6.0319,-0.464 -1.15996,-0.23199 -1.85595,-1.15996 -1.85595,-2.08795 0,-1.15999 0.92798,-2.31995 2.08795,-2.55195 1.85598,-0.46399 3.71193,-0.92799 5.5679,-1.15998 1.15998,-0.232 2.55196,-0.464 3.47994,-1.39199 0.92797,-0.46398 1.39197,-1.39196 1.39197,-2.31995 0,-0.92798 -0.92799,-2.31995 -2.78395,-4.17592 l -39.20726,-37.11929 c -1.15998,-0.92798 -1.85597,-1.62397 -2.31997,-1.62397 -1.15996,0 -1.85595,0.46399 -1.85595,1.39197 v 36.8873 c -0.232,2.31996 0.46399,4.40792 1.85595,6.0319 1.15999,0.92796 2.31997,1.85595 3.71194,2.08795 1.62398,0.69599 3.47993,1.15998 5.3359,1.39198 1.39197,0.232 2.31996,0.92797 2.31996,2.31995 0,0.92799 -0.69599,1.62396 -1.85598,2.08796 -1.39196,0.23199 -2.78394,0.46399 -3.94391,0.46399 -3.01594,0 -6.03189,-0.232 -8.81585,-0.46399 -2.78394,-0.232 -5.79988,-0.464 -8.58383,-0.464 -3.24794,0 -6.49588,0.232 -9.9758,0.464 -3.47994,0.23199 -6.49588,0.46399 -8.81585,0.46399 -1.15997,0 -2.55195,-0.232 -3.71193,-0.46399 -1.62397,-0.232 -2.55196,-0.92797 -2.55196,-2.31995 0,-0.92799 0.464,-2.08796 1.39199,-2.55195 1.15997,-0.464 2.31995,-0.92799 3.47993,-1.15999 1.62396,-0.46399 3.47994,-0.92799 4.8719,-1.39197 1.39199,-0.232 2.78396,-0.92798 4.17593,-1.62397 1.15999,-0.69599 2.08795,-1.85597 2.78395,-3.01594 0.69599,-2.08797 0.92798,-4.17593 0.92798,-6.26388 L 327.87906,26.240566"
   id="path8"
   inkscape:connector-curvature="0"
   style="fill:#00539b;stroke-width:2.3199563" />
<path
   d="m 450.37277,113.93492 c -0.464,1.15997 -0.464,2.31995 -0.464,3.71192 v 5.5679 c 0,5.33589 0.464,10.90379 1.39196,16.2397 0.92799,4.87189 2.78396,9.74381 5.56791,13.91973 3.01595,4.17591 6.95987,7.65585 11.36778,9.74381 6.0319,2.78395 12.75977,3.94394 19.25564,3.71194 3.94393,0.232 7.88785,-0.464 11.59979,-1.62398 2.31996,-0.69598 4.63991,-2.08796 6.49587,-3.47994 1.39198,-1.15996 2.55196,-2.31995 3.71193,-3.71192 0.69599,-0.92798 1.62398,-1.62397 2.78394,-1.62397 1.62398,0 2.31997,0.69599 2.31997,2.08796 -0.46399,1.39198 -1.15998,2.78395 -2.08797,3.94392 -1.85596,2.78395 -4.17591,5.10391 -6.72787,6.95988 -3.71193,2.78394 -7.65585,5.10389 -11.83178,6.72787 -5.56789,2.08796 -11.36779,3.24794 -17.16767,3.01594 -14.38373,0 -25.51952,-4.63992 -33.40737,-14.15174 -7.88786,-9.51181 -11.83179,-22.27156 -11.83179,-38.74326 0,-6.49588 0.92799,-12.75976 2.78396,-18.79165 1.85595,-6.26388 4.8719,-12.295766 8.58383,-17.631658 3.94393,-5.335891 9.04783,-9.743815 14.61573,-13.223749 6.49588,-3.711931 13.68775,-5.3359 21.11159,-5.103905 6.49588,-0.231995 12.99177,1.159978 18.79166,4.175923 4.63991,2.551951 9.04783,5.799886 12.29577,9.975811 3.01594,3.479943 5.33591,7.655859 6.72787,12.063763 1.15999,3.247935 1.85597,6.727885 2.08797,10.439805 0.23199,1.62398 -0.232,3.24794 -0.92798,4.87192 -0.69599,0.69598 -2.08798,1.15996 -4.17593,1.15996 l -62.87081,-0.23198 m 24.82351,-7.88785 c 4.63993,0 9.27984,-0.232 13.68775,-0.696 2.78396,-0.23199 5.5679,-0.92797 8.11985,-2.31995 1.62397,-0.69599 3.01594,-2.08797 3.71194,-3.94393 0.69599,-1.855953 0.92798,-3.943926 0.92798,-6.031878 0,-4.407916 -2.08796,-8.583831 -5.5679,-11.367785 -3.94393,-3.015941 -8.81583,-4.639913 -13.68775,-4.639913 -4.4079,0 -8.81583,0.927983 -12.52776,3.015943 -3.47994,1.855969 -6.72787,4.175925 -9.27982,7.191864 -2.31995,2.551951 -4.40792,5.335892 -5.7999,8.58383 -1.15997,2.319949 -1.85596,4.871919 -2.08795,7.423869 0,0.46399 0,0.92798 0.46399,1.15998 0.69599,0.46398 1.62396,0.69598 2.55195,0.69598 1.39197,0.23199 3.71193,0.23199 6.72787,0.46399 2.78395,0.464 7.19186,0.464 12.75975,0.464 z"
   id="path10"
   inkscape:connector-curvature="0"
   style="fill:#00539b;stroke-width:2.3199563" />
</svg>