<?xml version="1.0" encoding="UTF-8" standalone="no"?>
<!-- Generator: Adobe Illustrator 23.0.1, SVG Export Plug-In . SVG Version: 6.00 Build 0)  -->

<svg
   xmlns:dc="http://purl.org/dc/elements/1.1/"
   xmlns:cc="http://creativecommons.org/ns#"
   xmlns:rdf="http://www.w3.org/1999/02/22-rdf-syntax-ns#"
   xmlns:svg="http://www.w3.org/2000/svg"
   xmlns="http://www.w3.org/2000/svg"
   xmlns:sodipodi="http://sodipodi.sourceforge.net/DTD/sodipodi-0.dtd"
   xmlns:inkscape="http://www.inkscape.org/namespaces/inkscape"
   version="1.1"
   id="Layer_1"
   x="0px"
   y="0px"
   viewBox="0 0 500 180"
   enable-background="new 0 0 612 301.1"
   xml:space="preserve"
   sodipodi:docname="duke_wordmark_royalblue_00539B.svg"
   width="500"
   height="180"
   inkscape:version="0.92.3 (2405546, 2018-03-11)"><metadata
   id="metadata17"><rdf:RDF><cc:Work
       rdf:about=""><dc:format>image/svg+xml</dc:format><dc:type
         rdf:resource="http://purl.org/dc/dcmitype/StillImage" /><dc:title>Artboard 2</dc:title></cc:Work></rdf:RDF></metadata><defs
   id="defs15" /><sodipodi:namedview
   pagecolor="#ffffff"
   bordercolor="#666666"
   borderopacity="1"
   objecttolerance="10"
   gridtolerance="10"
   guidetolerance="10"
   inkscape:pageopacity="0"
   inkscape:pageshadow="2"
   inkscape:window-width="1920"
   inkscape:window-height="1001"
   id="namedview13"
   showgrid="false"
   inkscape:zoom="0.55392157"
   inkscape:cx="-11.734512"
   inkscape:cy="150.55"
   inkscape:window-x="1341"
   inkscape:window-y="572"
   inkscape:window-maximized="1"
   inkscape:current-layer="Layer_1" />
<title
   id="title2">Artboard 2</title>
<path
   d="m 69.409927,155.73126 c -2.96284,0 -6.29602,0.18517 -9.81439,0.37035 -3.51836,0.18518 -6.4812,0.37035 -8.8885,0.37035 -0.74071,0 -1.48142,0 -2.22213,-0.18517 -0.92588,0 -1.48141,-0.74071 -1.48141,-1.6666 0,0 0,0 0,-0.18517 0,-0.92589 0.55553,-1.85178 1.48141,-2.40731 1.85178,-1.11106 4.0739,-1.85177 6.29603,-2.03694 1.11106,-0.18518 2.22212,-0.37036 3.33318,-0.74071 1.11107,-0.37036 2.22213,-0.92589 2.96284,-1.85177 0.92588,-1.11107 1.66659,-2.40731 2.22212,-3.88872 0.55553,-2.22213 0.92589,-4.62943 0.74071,-7.03673 V 38.884519 c 0,-0.925885 -0.55553,-1.851771 -1.48142,-2.222125 -1.11106,-0.555531 -2.4073,-0.925885 -3.70354,-1.111063 -1.48141,-0.185177 -2.96283,-0.370354 -4.62943,-0.370354 -1.66659,0 -3.14801,-0.185177 -4.44425,-0.370354 -2.4073,-0.185177 -3.88871,-0.555531 -4.8146,-0.740708 -0.92589,-0.185177 -1.48142,-1.111063 -1.29624,-2.036948 0,-0.740709 0.37035,-1.481417 0.92589,-2.036948 0.55553,-0.555532 1.29624,-0.925886 2.22212,-1.111063 0.92589,-0.185177 1.66659,-0.370354 2.59248,-0.370354 0.92589,0 1.66659,-0.185177 2.4073,-0.185177 h 18.88807 c 5.18496,0 10.36991,-0.185177 15.55487,-0.555532 5.18496,-0.370354 11.11063,-0.555531 17.777003,-0.555531 10.36992,0 20.73984,1.29624 30.7394,4.073896 9.07368,2.59248 17.59183,6.851553 24.99891,12.77722 7.22191,6.110844 13.14758,13.703105 16.85112,22.221252 4.44425,10.18474 6.4812,21.110186 6.29602,32.220821 0,7.592249 -1.6666,15.184509 -5.18496,22.036059 -3.33319,6.85156 -7.96262,12.96239 -13.88828,17.96218 -6.11085,5.18495 -12.9624,9.44403 -20.36948,12.22168 -7.96262,2.96284 -16.48077,4.44425 -24.99891,4.44425 H 69.409927 m 12.40686,-25.36925 c 0,3.33318 0.74071,6.48119 2.22213,9.25885 1.48141,2.59248 3.51836,4.8146 6.11084,6.48119 2.59248,1.85178 5.55531,3.14802 8.51815,3.88872 3.148013,0.74071 6.481203,1.29624 9.814383,1.29624 3.33319,0 6.66638,-0.55553 9.81439,-1.29624 4.0739,-0.92588 7.96262,-2.22212 11.66616,-3.88872 4.25907,-1.85177 8.33297,-4.25907 12.03651,-7.03672 4.0739,-2.96284 7.77744,-6.4812 10.74027,-10.55509 3.33319,-4.25908 5.92567,-9.07368 7.77744,-14.25864 2.03695,-6.11084 2.96283,-12.40686 2.96283,-18.702889 0,-6.481185 -0.92588,-13.147565 -2.96283,-19.258409 -3.51837,-10.925449 -10.36992,-20.369481 -19.4436,-27.406211 -4.25907,-3.14801 -8.8885,-6.110844 -13.7031,-8.332969 -8.8885,-4.073896 -18.33253,-6.296021 -28.146923,-6.481199 -3.33319,0 -6.66638,0.185178 -9.99956,0.555532 -1.85177,0.185177 -3.51837,0.740708 -5.18496,1.481416 -0.92589,0.370355 -1.6666,1.29624 -2.03695,2.222126 -0.18518,0.740708 -0.37035,1.481416 -0.37035,2.222125 z"
   id="path4"
   inkscape:connector-curvature="0"
   style="fill:#00539b;stroke-width:1.851771" />
<path
   d="m 225.14387,159.4348 c -4.0739,0.18517 -8.33297,-0.55553 -12.22169,-2.03695 -3.14801,-1.29624 -5.74049,-3.33319 -7.59226,-5.92567 -1.85177,-2.77765 -3.33319,-5.92567 -3.88872,-9.25885 -0.74071,-3.88872 -1.11106,-7.96262 -1.11106,-12.03651 0,-3.14801 0,-6.66637 0.18517,-10.55509 0,-3.88872 0.18518,-7.77744 0.18518,-11.66616 0,-4.0739 0,-7.962599 0.18518,-11.666149 0,-3.88872 0.18517,-7.221905 0.18517,-10.184745 0.18518,-1.29624 -0.7407,-2.59248 -2.03694,-2.96283 -1.29624,-0.37035 -2.77766,-0.74071 -3.88872,-1.11106 -1.6666,-0.37036 -3.33319,-0.92589 -4.99978,-1.48142 -0.74071,-0.18518 -1.29624,-0.74071 -1.29624,-1.481416 0,-0.740709 0.55553,-1.481417 1.29624,-1.666594 0,0 0,0 0.18517,0 1.29624,-0.185177 2.4073,-0.185177 3.70354,-0.185177 1.48142,0 2.96284,0 4.44425,0.185177 1.48142,0.185177 2.96284,0.185177 4.44426,0.185177 1.48141,0 3.14801,0 4.62942,-0.185177 1.48142,-0.185177 3.14801,-0.185177 4.62943,-0.185177 1.48142,0 2.22213,0.185177 2.59248,0.740708 0.37035,0.925886 0.55553,2.036949 0.55553,3.148009 0,9.25886 0,18.517715 -0.18518,27.776564 -0.18517,9.25885 -0.18517,18.33253 -0.18517,27.77655 -0.18518,3.70355 1.48141,7.40709 4.25907,9.81439 3.51836,2.4073 7.77744,3.70354 12.03651,3.33319 4.62943,0.18518 9.07368,-0.37036 13.51793,-1.6666 2.77766,-0.7407 5.18496,-2.22212 7.40708,-4.25907 1.6666,-1.66659 2.77766,-3.70354 3.14801,-5.92567 0.55554,-2.03694 0.74071,-4.25907 0.74071,-6.48119 0,-7.40708 0,-14.81417 0.18518,-22.22125 0.18518,-7.40708 0.18518,-14.628979 0.18518,-22.221244 0,-0.55553 -0.18518,-0.92589 -0.37036,-1.48142 -0.37035,-0.55553 -0.92588,-0.92588 -1.48141,-1.11106 -0.74071,-0.18518 -1.85178,-0.55553 -3.14802,-0.92589 -1.29623,-0.37035 -3.33318,-0.92588 -5.74049,-1.48141 -0.7407,-0.18518 -2.03694,-0.74071 -3.70354,-1.29624 -1.66659,-0.55553 -2.4073,-1.29624 -2.4073,-2.03695 0,-0.740709 0.55553,-1.111063 1.48142,-1.29624 1.11106,-0.185177 2.03695,-0.370354 3.14801,-0.370354 1.85177,0 3.51836,0 5.37013,0.185177 1.6666,0.185177 3.51837,0.185177 5.37014,0.185177 2.03695,0 4.0739,0 6.11084,-0.185177 2.03695,-0.185177 4.0739,-0.185177 6.11085,-0.185177 0.92588,0 1.85177,0.370354 2.77765,0.740708 1.11107,0.555531 1.6666,1.666596 1.6666,3.703546 0,10.555095 -0.18518,20.925004 -0.37036,31.480094 -0.18517,10.36992 -0.37035,20.92501 -0.37035,31.4801 0,2.22213 0.74071,3.51837 2.03695,4.0739 1.11106,0.55553 2.22212,0.74071 3.33319,0.74071 4.07389,0 6.85155,0 8.33297,0.18517 1.66659,0.18518 2.4073,0.74071 2.4073,1.85177 0,0.74071 -0.37036,1.29624 -0.92589,1.6666 -1.11106,0.37035 -2.03695,0.74071 -3.14801,0.74071 -7.40708,1.11106 -13.14757,2.03695 -17.22147,2.77765 -2.59248,0.55553 -5.18496,0.92589 -7.77744,1.29624 -0.7407,0 -1.29624,-0.37035 -1.48141,-0.92588 -0.18518,-0.74071 -0.18518,-1.6666 -0.18518,-2.4073 v -4.81461 c 0,-1.66659 -0.55553,-2.4073 -1.48142,-2.4073 -1.29624,0.18518 -2.59248,0.92588 -3.51836,1.85177 -1.48142,1.29624 -3.51837,2.59248 -5.92567,4.25907 -2.59248,1.6666 -5.55531,3.14801 -8.51815,4.25908 -4.25907,1.29624 -7.96261,2.03694 -11.66615,1.85177"
   id="path6"
   inkscape:connector-curvature="0"
   style="fill:#00539b;stroke-width:1.851771" />
<path
   d="m 303.65896,37.58828 c 0.18517,-2.036949 -0.37036,-4.259074 -1.48142,-5.925668 -0.92589,-1.111062 -2.22213,-2.036948 -3.51836,-2.407302 -1.29624,-0.555531 -2.40731,-0.925885 -3.51837,-1.111062 -0.92589,-0.185178 -1.66659,-0.925886 -1.48142,-1.851771 0,-0.740709 0.37036,-1.29624 1.11107,-1.481417 1.11106,-0.555532 2.22212,-0.925886 3.33318,-1.29624 l 14.07346,-5.370136 c 0.55553,-0.185177 1.11107,-0.370354 1.6666,-0.370354 h 1.85177 c 0.55553,0 1.11106,0.370354 1.48142,0.740708 0.55553,0.925886 0.92588,2.036948 0.7407,2.962834 v 85.366638 c 0,2.22212 0.55553,3.33319 1.85177,3.33319 1.11107,-0.37036 2.22213,-0.74071 3.14802,-1.29624 1.85177,-0.92589 4.07389,-2.03695 6.48119,-3.51837 2.40731,-1.48142 5.18496,-3.14801 7.96262,-4.81459 2.77766,-1.851769 5.37013,-3.518369 7.77744,-5.184959 2.4073,-1.66661 4.25907,-3.14801 5.92566,-4.444255 1.6666,-1.29624 2.40731,-2.4073 2.40731,-2.96284 0,-1.11106 -0.37036,-2.4073 -1.29624,-3.14801 -0.74071,-0.7407 -1.6666,-1.29624 -2.77766,-1.85177 -0.92589,-0.55553 -1.85177,-0.92588 -2.77766,-1.48141 -0.7407,-0.37036 -1.29624,-1.11107 -1.29624,-2.03695 0,-0.555533 0.37036,-1.111065 0.92589,-1.481419 0.55553,-0.370354 1.29624,-0.555531 2.03695,-0.555531 2.22212,0 4.8146,0 7.59226,0.185177 2.77766,0.185177 5.55531,0.185177 8.33297,0.185177 2.59248,0 5.37013,0 8.14779,-0.185177 2.77766,-0.185177 5.37014,-0.185177 7.40708,-0.185177 0.92589,0 1.85178,0.185177 2.77766,0.370354 0.92589,0.370354 1.29624,1.111063 1.29624,2.036946 0,0.55553 -0.37035,1.11106 -1.11106,1.48142 -0.92589,0.55553 -1.85177,0.92588 -2.77766,1.29624 -1.11106,0.37035 -2.22212,0.74071 -3.51836,1.11106 -1.11107,0.37036 -2.03695,0.74071 -2.77766,0.92589 -1.48142,0.74071 -4.44425,2.22212 -8.8885,4.62942 -4.44425,2.407305 -8.8885,4.999785 -13.51793,7.777435 -4.62943,2.77766 -8.70332,5.370139 -12.40686,7.777439 -3.51837,2.4073 -5.37014,3.88872 -5.37014,4.44425 0,0.55553 0.18518,1.29624 0.55553,1.85177 0.37036,0.37036 0.74071,0.74071 1.11106,1.11106 l 35.92436,32.59117 c 1.85177,1.66659 3.88872,3.14801 6.11085,4.44425 2.03694,0.92588 3.70354,1.85177 5.37013,2.4073 1.48142,0.55553 2.77766,1.11106 3.70354,1.48142 0.92589,0.37035 1.29624,0.92588 1.29624,1.66659 0,1.29624 -1.85177,2.03695 -5.37013,2.03695 -2.22213,0 -4.62943,-0.18518 -7.22191,-0.37036 -2.59248,-0.18517 -5.55531,-0.37035 -8.70332,-0.37035 -2.59248,0 -5.18496,0.18518 -7.96262,0.37035 -2.4073,0.18518 -4.99978,0.37036 -7.40708,0.37036 -1.6666,0 -3.14801,0 -4.81461,-0.37036 -0.92588,-0.18517 -1.48141,-0.92588 -1.48141,-1.66659 0,-0.92589 0.7407,-1.85177 1.66659,-2.03695 1.48142,-0.37035 2.96283,-0.74071 4.44425,-0.92588 0.92589,-0.18518 2.03695,-0.37036 2.77766,-1.11107 0.7407,-0.37035 1.11106,-1.11106 1.11106,-1.85177 0,-0.74071 -0.74071,-1.85177 -2.22213,-3.33319 L 321.0656,115.91819 c -0.92588,-0.74071 -1.48141,-1.29624 -1.85177,-1.29624 -0.92588,0 -1.48141,0.37035 -1.48141,1.11106 v 29.44315 c -0.18518,1.85177 0.37035,3.51837 1.48141,4.81461 0.92589,0.7407 1.85177,1.48141 2.96284,1.66659 1.29624,0.55553 2.77765,0.92588 4.25907,1.11106 1.11106,0.18518 1.85177,0.74071 1.85177,1.85177 0,0.74071 -0.55553,1.29624 -1.48142,1.6666 -1.11106,0.18517 -2.22212,0.37035 -3.14801,0.37035 -2.4073,0 -4.8146,-0.18518 -7.03673,-0.37035 -2.22212,-0.18518 -4.62942,-0.37036 -6.85155,-0.37036 -2.59248,0 -5.18496,0.18518 -7.96261,0.37036 -2.77766,0.18517 -5.18496,0.37035 -7.03673,0.37035 -0.92589,0 -2.03695,-0.18518 -2.96284,-0.37035 -1.29624,-0.18518 -2.03695,-0.74071 -2.03695,-1.85177 0,-0.74071 0.37036,-1.6666 1.11107,-2.03695 0.92588,-0.37036 1.85177,-0.74071 2.77765,-0.92589 1.29624,-0.37035 2.77766,-0.74071 3.88872,-1.11106 1.11107,-0.18518 2.22213,-0.74071 3.33319,-1.29624 0.92589,-0.55553 1.66659,-1.48142 2.22213,-2.4073 0.55553,-1.6666 0.7407,-3.33319 0.7407,-4.99978 L 303.65896,37.58828"
   id="path8"
   inkscape:connector-curvature="0"
   style="fill:#00539b;stroke-width:1.851771" />
<path
   d="m 401.43247,107.58522 c -0.37036,0.92588 -0.37036,1.85177 -0.37036,2.96283 v 4.44425 c 0,4.25907 0.37036,8.70332 1.11106,12.9624 0.74071,3.88871 2.22213,7.77743 4.44425,11.11062 2.40731,3.33318 5.55532,6.11084 9.07368,7.77743 4.81461,2.22213 10.18474,3.14802 15.3697,2.96284 3.14801,0.18518 6.29602,-0.37036 9.25886,-1.29624 1.85177,-0.55553 3.70354,-1.6666 5.18495,-2.77766 1.11107,-0.92588 2.03695,-1.85177 2.96284,-2.96283 0.55553,-0.74071 1.29624,-1.29624 2.22212,-1.29624 1.29624,0 1.85177,0.55553 1.85177,1.66659 -0.37035,1.11107 -0.92588,2.22213 -1.66659,3.14801 -1.48142,2.22213 -3.33319,4.0739 -5.37014,5.55532 -2.96283,2.22212 -6.11084,4.07389 -9.44403,5.37013 -4.44425,1.6666 -9.07368,2.59248 -13.7031,2.4073 -11.48098,0 -20.36948,-3.70354 -26.6655,-11.2958 -6.29603,-7.59226 -9.44404,-17.77699 -9.44404,-30.92457 0,-5.18496 0.74071,-10.18474 2.22213,-14.99934 1.48141,-4.999779 3.88872,-9.814389 6.85155,-14.073454 3.14801,-4.25907 7.22191,-7.77744 11.66616,-10.555096 5.18496,-2.962834 10.92545,-4.259073 16.85111,-4.073896 5.18496,-0.185177 10.36992,0.925885 14.99935,3.333188 3.70354,2.036948 7.22191,4.629424 9.81439,7.962614 2.4073,2.77766 4.25907,6.110845 5.37013,9.629205 0.92589,2.59248 1.48142,5.37014 1.6666,8.332969 0.18517,1.29624 -0.18518,2.59248 -0.74071,3.88872 -0.55553,0.55553 -1.6666,0.92588 -3.33319,0.92588 l -50.18299,-0.18517 m 19.81394,-6.29602 c 3.70355,0 7.40709,-0.18518 10.92545,-0.55554 2.22213,-0.18517 4.44425,-0.740699 6.4812,-1.851769 1.29624,-0.55553 2.4073,-1.66659 2.96284,-3.14801 0.55553,-1.48141 0.7407,-3.14801 0.7407,-4.814595 0,-3.51837 -1.66659,-6.85155 -4.44425,-9.07368 -3.14801,-2.4073 -7.03673,-3.703542 -10.92545,-3.703542 -3.51836,0 -7.03673,0.740709 -9.99956,2.407302 -2.77766,1.48142 -5.37013,3.33319 -7.40708,5.74049 -1.85177,2.03695 -3.51837,4.25907 -4.62943,6.851545 -0.92589,1.85177 -1.48142,3.88872 -1.66659,5.92567 0,0.37035 0,0.74071 0.37035,0.92589 0.55553,0.370349 1.29624,0.555529 2.03695,0.555529 1.11106,0.18517 2.96283,0.18517 5.37013,0.37035 2.22213,0.37036 5.74049,0.37036 10.18474,0.37036 z"
   id="path10"
   inkscape:connector-curvature="0"
   style="fill:#00539b;stroke-width:1.851771" />
</svg>